<svg width="32" height="32" viewBox="0 0 32 32" fill="none" xmlns="http://www.w3.org/2000/svg">
<rect width="32" height="32" rx="4" fill="white"/>
<path d="M16.6222 4.01594C9.50323 3.6539 3.65133 9.50598 4.01619 16.628C4.32731 22.7262 9.28262 27.6788 15.3806 27.9843C22.4996 28.3435 28.3487 22.4914 27.9838 15.3694C27.6699 9.27405 22.7174 4.32425 16.6222 4.01594ZM26.2189 18.0564C25.7041 18.0564 25.2714 17.4709 25.1187 16.6563C25.1102 16.6082 25.0451 16.6111 25.0395 16.6563C24.8387 18.4609 23.8233 19.8355 22.5958 19.8355C21.3682 19.8355 20.384 18.5061 20.1605 16.744C20.1549 16.6988 20.0898 16.6959 20.0813 16.744C19.7334 18.673 18.0449 20.1353 16.0141 20.1353C13.9834 20.1353 12.2581 18.6391 11.9356 16.679C11.9271 16.6309 11.8621 16.6337 11.8564 16.679C11.6471 18.475 10.6317 19.8383 9.41272 19.8383C8.19369 19.8383 7.16416 18.4524 6.96901 16.6394C6.96335 16.5913 6.8983 16.5884 6.88981 16.6394C6.73708 17.4653 6.30151 18.0592 5.78675 18.0592C5.14471 18.0592 4.62429 17.14 4.62429 16.0029C4.62429 14.8659 5.14471 13.9467 5.78675 13.9467C6.30151 13.9467 6.73708 14.5406 6.88981 15.3665C6.8983 15.4146 6.96618 15.4118 6.96901 15.3665C7.16416 13.5535 8.18521 12.1676 9.41272 12.1676C10.6402 12.1676 11.65 13.5309 11.8564 15.3269C11.8621 15.375 11.9271 15.375 11.9356 15.3269C12.2581 13.3668 13.9579 11.8706 16.0141 11.8706C18.0704 11.8706 19.7306 13.3329 20.0813 15.2619C20.0898 15.3071 20.1549 15.3071 20.1605 15.2619C20.3868 13.4998 21.3909 12.1704 22.5958 12.1704C23.8006 12.1704 24.8387 13.545 25.0395 15.3496C25.0451 15.3977 25.1102 15.3977 25.1187 15.3496C25.2714 14.535 25.707 13.9495 26.2189 13.9495C26.8581 13.9495 27.3785 14.8687 27.3785 16.0058C27.3785 17.1428 26.8581 18.0621 26.2189 18.0621V18.0564Z" fill="#0021CC"/>
</svg>
