<svg width="143" height="42" viewBox="0 0 143 42" fill="none" xmlns="http://www.w3.org/2000/svg">
<g clip-path="url(#clip0_2270_1785)">
<path d="M56.3613 9.97909H62.6599V13.1322C63.2873 12.0185 64.2111 11.1572 65.4263 10.5384C66.6416 9.92464 68.0298 9.61279 69.5859 9.61279C71.2359 9.61279 72.6981 9.98899 73.9727 10.7414C75.2472 11.4938 76.2352 12.5431 76.9416 13.8945C77.6481 15.2458 77.9988 16.7951 77.9988 18.5375V32.6893H71.7002V19.9334C71.7002 18.5523 71.2951 17.4188 70.485 16.5278C69.6748 15.6418 68.6275 15.1963 67.3381 15.1963C66.4391 15.1963 65.6338 15.4141 64.9323 15.8497C64.2259 16.2853 63.6726 16.8842 63.2675 17.6514C62.8625 18.4187 62.6599 19.28 62.6599 20.2452V32.6843H56.3613V9.97909Z" fill="white"/>
<path d="M89.3311 0.109375V6.73731H82.6719V0.109375H89.3311ZM82.8102 9.9795H89.1088V32.6946H82.8102V9.9795Z" fill="white"/>
<path d="M90.0083 36.9813H91.4953C92.3054 36.9813 92.9575 36.6793 93.4515 36.0804C93.9455 35.4765 94.1925 34.6845 94.1925 33.6896V9.9795H100.491V34.3628C100.491 36.709 99.7797 38.5454 98.3521 39.8819C96.9293 41.2184 94.9829 41.8866 92.5277 41.8866H90.0083V36.9714V36.9813ZM100.758 0.109375V6.73731H94.0987V0.109375H100.758Z" fill="white"/>
<path d="M111.937 31.7299C110.633 31.0865 109.625 30.1361 108.924 28.8887C108.217 27.6413 107.866 26.1613 107.866 24.4486V15.2517H103.504V9.98003H107.866V3.3125H114.165V9.98498H120.236V15.2566H114.165V24.1813C114.165 25.2654 114.437 26.0722 114.975 26.6167C115.514 27.1562 116.294 27.4285 117.312 27.4285H120.236V32.7001H116.502C114.763 32.7001 113.241 32.3784 111.937 31.7299Z" fill="white"/>
<path d="M126.535 32.1794C125.394 31.5954 124.509 30.7836 123.882 29.7441C123.255 28.7046 122.938 27.5414 122.938 26.2494C122.938 24.7793 123.299 23.5022 124.02 22.4182C124.742 21.3342 125.744 20.5026 127.034 19.9185C128.323 19.3344 129.825 19.0374 131.534 19.0374H134.819C135.511 19.0374 136.01 18.9038 136.326 18.6315C136.642 18.3593 136.8 17.9534 136.8 17.4139C136.8 16.4536 136.44 15.6764 135.718 15.0923C134.997 14.5083 134.009 14.2113 132.749 14.2113C131.88 14.2113 131.129 14.3746 130.502 14.7063C129.874 15.0379 129.4 15.4735 129.084 16.013C128.768 16.5526 128.58 17.1565 128.521 17.8148H122.988C123.047 16.2803 123.497 14.8943 124.337 13.647C125.176 12.3996 126.337 11.4146 127.824 10.6968C129.311 9.97414 131.07 9.61279 133.11 9.61279C134.997 9.61279 136.701 9.96424 138.218 10.6721C139.735 11.3799 140.91 12.3699 141.75 13.647C142.59 14.924 143.01 16.4041 143.01 18.087V32.6893H136.8V29.5362L136.573 29.9421C136.272 30.541 135.817 31.0855 135.2 31.5657C134.587 32.0458 133.866 32.417 133.041 32.6695C132.216 32.9219 131.322 33.0506 130.363 33.0506C128.955 33.0506 127.681 32.7586 126.54 32.1695L126.535 32.1794ZM135.511 27.0612C136.366 26.1009 136.795 24.8684 136.795 23.3636V23.0914H132.478C131.366 23.0914 130.507 23.3488 129.889 23.8586C129.277 24.3685 128.965 25.0466 128.965 25.8881C128.965 26.7296 129.242 27.3384 129.795 27.8037C130.349 28.269 131.09 28.5017 132.023 28.5017C133.49 28.5017 134.656 28.0215 135.511 27.0612Z" fill="white"/>
<path d="M21.8803 0.321141C9.76164 -0.296389 -0.199987 9.6854 0.42111 21.8334C0.950728 32.2349 9.38609 40.6825 19.7666 41.2036C31.8852 41.8163 41.842 31.8345 41.2209 19.6865C40.6865 9.2898 32.2559 0.847006 21.8803 0.321141ZM38.2165 24.2697C37.3403 24.2697 36.6036 23.2711 36.3436 21.8816C36.3292 21.7996 36.2184 21.8044 36.2088 21.8816C35.867 24.9596 34.1385 27.3043 32.0489 27.3043C29.9593 27.3043 28.2838 25.0368 27.9035 22.0312C27.8938 21.954 27.7831 21.9492 27.7686 22.0312C27.1764 25.3215 24.302 27.8157 20.8451 27.8157C17.3881 27.8157 14.4512 25.2636 13.9023 21.9202C13.8878 21.8382 13.7771 21.843 13.7675 21.9202C13.4112 24.9837 11.6827 27.3091 9.60757 27.3091C7.53243 27.3091 5.77988 24.9451 5.44766 21.8527C5.43803 21.7707 5.3273 21.7658 5.31285 21.8527C5.05286 23.2614 4.31139 24.2745 3.43512 24.2745C2.34218 24.2745 1.45627 22.7066 1.45627 20.7672C1.45627 18.8277 2.34218 17.2598 3.43512 17.2598C4.31139 17.2598 5.05286 18.2729 5.31285 19.6817C5.3273 19.7637 5.44285 19.7589 5.44766 19.6817C5.77988 16.5892 7.51799 14.2252 9.60757 14.2252C11.6972 14.2252 13.416 16.5506 13.7675 19.6141C13.7771 19.6961 13.8878 19.6961 13.9023 19.6141C14.4512 16.2708 17.3448 13.7186 20.8451 13.7186C24.3454 13.7186 27.1716 16.2129 27.7686 19.5032C27.7831 19.5804 27.8938 19.5804 27.9035 19.5032C28.2886 16.4975 29.9978 14.23 32.0489 14.23C34.1 14.23 35.867 16.5747 36.2088 19.6527C36.2184 19.7347 36.3292 19.7347 36.3436 19.6527C36.6036 18.2633 37.3451 17.2646 38.2165 17.2646C39.3047 17.2646 40.1906 18.8326 40.1906 20.772C40.1906 22.7114 39.3047 24.2794 38.2165 24.2794V24.2697Z" fill="white"/>
</g>
<defs>
<clipPath id="clip0_2270_1785">
<rect width="143" height="42" fill="white"/>
</clipPath>
</defs>
</svg>
