<svg width="289" height="85" viewBox="0 0 289 85" fill="none" xmlns="http://www.w3.org/2000/svg">
<g clip-path="url(#clip0_2270_2539)">
<path d="M113.905 20.1959H126.634V26.5772C127.902 24.3232 129.769 22.5801 132.225 21.3279C134.681 20.0857 137.486 19.4546 140.631 19.4546C143.966 19.4546 146.921 20.2159 149.497 21.7386C152.072 23.2613 154.069 25.3851 155.497 28.1199C156.925 30.8547 157.633 33.9902 157.633 37.5165V66.157H144.904V40.3414C144.904 37.5465 144.085 35.2525 142.448 33.4493C140.811 31.6561 138.694 30.7545 136.088 30.7545C134.271 30.7545 132.644 31.1953 131.226 32.0769C129.799 32.9584 128.681 34.1706 127.862 35.7233C127.043 37.276 126.634 39.0191 126.634 40.9726V66.147H113.905V20.1959Z" fill="#0C0C0C"/>
<path d="M180.536 0.221436V13.6351H167.078V0.221436H180.536ZM167.357 20.1967H180.087V66.1678H167.357V20.1967Z" fill="#0C0C0C"/>
<path d="M181.904 74.8431H184.909C186.547 74.8431 187.865 74.232 188.863 73.0199C189.861 71.7977 190.361 70.1949 190.361 68.1814V20.1967H203.09V69.5438C203.09 74.2921 201.652 78.0087 198.767 80.7135C195.892 83.4182 191.958 84.7706 186.996 84.7706H181.904V74.8231V74.8431ZM203.629 0.221436V13.6351H190.171V0.221436H203.629Z" fill="#0C0C0C"/>
<path d="M226.221 64.2151C223.586 62.9128 221.549 60.9894 220.131 58.465C218.704 55.9405 217.995 52.9452 217.995 49.4791V30.8663H209.179V20.1974H217.995V6.70361H230.724V20.2074H242.994V30.8763H230.724V48.9381C230.724 51.132 231.273 52.7649 232.361 53.8668C233.45 54.9588 235.027 55.5097 237.084 55.5097H242.994V66.1786H235.446C231.932 66.1786 228.857 65.5274 226.221 64.2151Z" fill="#0C0C0C"/>
<path d="M255.724 65.1252C253.417 63.9431 251.63 62.3002 250.362 60.1965C249.094 58.0928 248.455 55.7386 248.455 53.124C248.455 50.1488 249.184 47.5642 250.642 45.3703C252.099 43.1765 254.126 41.4935 256.732 40.3114C259.338 39.1293 262.373 38.5282 265.827 38.5282H272.466C273.864 38.5282 274.872 38.2578 275.511 37.7068C276.15 37.1558 276.47 36.3344 276.47 35.2425C276.47 33.299 275.741 31.7262 274.283 30.5442C272.826 29.3621 270.829 28.761 268.283 28.761C266.526 28.761 265.008 29.0916 263.74 29.7628C262.473 30.434 261.514 31.3155 260.875 32.4074C260.236 33.4994 259.857 34.7215 259.737 36.0539H248.555C248.675 32.9484 249.583 30.1435 251.281 27.619C252.978 25.0945 255.324 23.101 258.329 21.6485C261.334 20.1859 264.889 19.4546 269.012 19.4546C272.826 19.4546 276.27 20.1658 279.335 21.5984C282.4 23.0309 284.776 25.0344 286.473 27.619C288.171 30.2036 289.019 33.1988 289.019 36.6049V66.157H276.47V59.7757L276.011 60.5972C275.401 61.8093 274.483 62.9113 273.235 63.883C271.997 64.8547 270.539 65.606 268.872 66.1169C267.205 66.6278 265.398 66.8883 263.461 66.8883C260.616 66.8883 258.04 66.2973 255.733 65.1052L255.724 65.1252ZM273.864 54.7669C275.591 52.8235 276.46 50.3291 276.46 47.2837V46.7327H267.734C265.488 46.7327 263.75 47.2536 262.502 48.2855C261.264 49.3173 260.636 50.6897 260.636 52.3927C260.636 54.0957 261.195 55.3279 262.313 56.2696C263.431 57.2112 264.929 57.6821 266.815 57.6821C269.781 57.6821 272.137 56.7103 273.864 54.7669Z" fill="#0C0C0C"/>
<path d="M44.2198 0.649521C19.7284 -0.600241 -0.40388 19.601 0.851344 44.1862C1.92169 65.2369 18.9694 82.3332 39.9482 83.3877C64.4396 84.6277 84.5621 64.4265 83.3069 39.8413C82.2268 18.8004 65.1889 1.71377 44.2198 0.649521ZM77.2351 49.1169C75.4642 49.1169 73.9754 47.0958 73.45 44.2838C73.4208 44.1178 73.197 44.1276 73.1776 44.2838C72.4867 50.5131 68.9935 55.2583 64.7705 55.2583C60.5475 55.2583 57.1613 50.6693 56.3926 44.5865C56.3731 44.4303 56.1493 44.4205 56.1201 44.5865C54.9233 51.2454 49.1142 56.2933 42.1278 56.2933C35.1413 56.2933 29.2058 51.1282 28.0965 44.3619C28.0673 44.1959 27.8435 44.2057 27.8241 44.3619C27.104 50.5619 23.6108 55.2681 19.417 55.2681C15.2232 55.2681 11.6813 50.4838 11.0099 44.2252C10.9904 44.0593 10.7666 44.0495 10.7375 44.2252C10.212 47.0763 8.71352 49.1267 6.94259 49.1267C4.73378 49.1267 2.94338 45.9534 2.94338 42.0284C2.94338 38.1034 4.73378 34.9301 6.94259 34.9301C8.71352 34.9301 10.212 36.9805 10.7375 39.8315C10.7666 39.9975 11.0002 39.9878 11.0099 39.8315C11.6813 33.573 15.194 28.7887 19.417 28.7887C23.64 28.7887 27.1137 33.4949 27.8241 39.6948C27.8435 39.8608 28.0673 39.8608 28.0965 39.6948C29.2058 32.9286 35.0538 27.7635 42.1278 27.7635C49.2018 27.7635 54.9136 32.8114 56.1201 39.4703C56.1493 39.6265 56.3731 39.6265 56.3926 39.4703C57.171 33.3875 60.6253 28.7985 64.7705 28.7985C68.9156 28.7985 72.4867 33.5437 73.1776 39.773C73.197 39.9389 73.4208 39.9389 73.45 39.773C73.9754 36.961 75.4739 34.9399 77.2351 34.9399C79.4342 34.9399 81.2246 38.1131 81.2246 42.0382C81.2246 45.9632 79.4342 49.1364 77.2351 49.1364V49.1169Z" fill="#0C0C0C"/>
</g>
<defs>
<clipPath id="clip0_2270_2539">
<rect width="289" height="85" fill="white"/>
</clipPath>
</defs>
</svg>
